<?xml version="1.0" encoding="UTF-8" standalone="no"?>
<!DOCTYPE svg PUBLIC "-//W3C//DTD SVG 1.1//EN"
 "http://www.w3.org/Graphics/SVG/1.1/DTD/svg11.dtd">
<!-- Generated by graphviz version 2.40.1 (20161225.0304)
 -->
<!-- Title: G Pages: 1 -->
<svg width="513pt" height="672pt"
 viewBox="0.00 0.00 513.00 672.00" xmlns="http://www.w3.org/2000/svg" xmlns:xlink="http://www.w3.org/1999/xlink">
<g id="graph0" class="graph" transform="scale(1 1) rotate(0) translate(4 668)">
<title>G</title>
<polygon fill="#ffffff" stroke="transparent" points="-4,4 -4,-668 509,-668 509,4 -4,4"/>
<g id="clust1" class="cluster">
<title>cluster_Global</title>
<path fill="none" stroke="#c0c0c0" d="M20,-8C20,-8 485,-8 485,-8 491,-8 497,-14 497,-20 497,-20 497,-644 497,-644 497,-650 491,-656 485,-656 485,-656 20,-656 20,-656 14,-656 8,-650 8,-644 8,-644 8,-20 8,-20 8,-14 14,-8 20,-8"/>
<text text-anchor="middle" x="252.5" y="-643.2" font-family="Times,serif" font-size="11.00" fill="#c0c0c0">Global</text>
</g>
<g id="clust2" class="cluster">
<title>cluster_\GSC</title>
<path fill="none" stroke="#c0c0c0" d="M28,-16C28,-16 477,-16 477,-16 483,-16 489,-22 489,-28 489,-28 489,-616 489,-616 489,-622 483,-628 477,-628 477,-628 28,-628 28,-628 22,-628 16,-622 16,-616 16,-616 16,-28 16,-28 16,-22 22,-16 28,-16"/>
<text text-anchor="middle" x="252.5" y="-615.2" font-family="Times,serif" font-size="11.00" fill="#c0c0c0">GSC</text>
</g>
<!-- \\GSC\\RSSPresenter -->
<g id="node1" class="node">
<title>\\GSC\\RSSPresenter</title>
<polygon fill="none" stroke="#000000" points="471,-546 373,-546 373,-510 471,-510 471,-546"/>
<text text-anchor="middle" x="422" y="-525.2" font-family="Courier,monospace" font-size="11.00" fill="#000000">RSSPresenter</text>
</g>
<!-- \\GSC\\APresenter -->
<g id="node7" class="node">
<title>\\GSC\\APresenter</title>
<polygon fill="none" stroke="#000000" points="277.5,-330 193.5,-330 193.5,-294 277.5,-294 277.5,-330"/>
<text text-anchor="start" x="201.5" y="-315.2" font-family="Courier,monospace" font-size="11.00" fill="#000000">«abstract»</text>
<text text-anchor="start" x="201.5" y="-303.2" font-family="Courier,monospace" font-size="11.00" fill="#000000">APresenter</text>
</g>
<!-- \\GSC\\RSSPresenter&#45;&gt;\\GSC\\APresenter -->
<g id="edge1" class="edge">
<title>\\GSC\\RSSPresenter&#45;&gt;\\GSC\\APresenter</title>
<path fill="none" stroke="#000000" d="M375.708,-509.8905C371.1966,-507.2382 366.8664,-504.2782 363,-501 308.3348,-454.6517 267.2137,-379.315 247.8251,-339.1845"/>
<polygon fill="none" stroke="#000000" points="250.9232,-337.5489 243.477,-330.0119 244.5978,-340.5473 250.9232,-337.5489"/>
</g>
<!-- \\GSC\\ApiPresenter -->
<g id="node2" class="node">
<title>\\GSC\\ApiPresenter</title>
<polygon fill="none" stroke="#000000" points="471,-492 373,-492 373,-456 471,-456 471,-492"/>
<text text-anchor="middle" x="422" y="-471.2" font-family="Courier,monospace" font-size="11.00" fill="#000000">ApiPresenter</text>
</g>
<!-- \\GSC\\ApiPresenter&#45;&gt;\\GSC\\APresenter -->
<g id="edge2" class="edge">
<title>\\GSC\\ApiPresenter&#45;&gt;\\GSC\\APresenter</title>
<path fill="none" stroke="#000000" d="M377.4589,-455.8934C372.4184,-453.1871 367.4873,-450.2142 363,-447 319.3476,-415.7326 278.5259,-368.0053 255.3298,-338.472"/>
<polygon fill="none" stroke="#000000" points="257.8822,-336.0516 248.9901,-330.2913 252.3491,-340.3395 257.8822,-336.0516"/>
</g>
<!-- \\GSC\\LoginPresenter -->
<g id="node3" class="node">
<title>\\GSC\\LoginPresenter</title>
<polygon fill="none" stroke="#000000" points="477.5,-438 366.5,-438 366.5,-402 477.5,-402 477.5,-438"/>
<text text-anchor="middle" x="422" y="-417.2" font-family="Courier,monospace" font-size="11.00" fill="#000000">LoginPresenter</text>
</g>
<!-- \\GSC\\LoginPresenter&#45;&gt;\\GSC\\APresenter -->
<g id="edge3" class="edge">
<title>\\GSC\\LoginPresenter&#45;&gt;\\GSC\\APresenter</title>
<path fill="none" stroke="#000000" d="M380.7007,-401.9751C374.697,-399.1031 368.6423,-396.0646 363,-393 330.6357,-375.4211 295.4089,-352.7519 270.2007,-335.868"/>
<polygon fill="none" stroke="#000000" points="271.972,-332.8411 261.7233,-330.1551 268.06,-338.646 271.972,-332.8411"/>
</g>
<!-- \\GSC\\LogoutPresenter -->
<g id="node4" class="node">
<title>\\GSC\\LogoutPresenter</title>
<polygon fill="none" stroke="#000000" points="481,-384 363,-384 363,-348 481,-348 481,-384"/>
<text text-anchor="middle" x="422" y="-363.2" font-family="Courier,monospace" font-size="11.00" fill="#000000">LogoutPresenter</text>
</g>
<!-- \\GSC\\LogoutPresenter&#45;&gt;\\GSC\\APresenter -->
<g id="edge4" class="edge">
<title>\\GSC\\LogoutPresenter&#45;&gt;\\GSC\\APresenter</title>
<path fill="none" stroke="#000000" d="M362.9902,-348.9141C338.7123,-341.8845 310.8385,-333.8138 287.3577,-327.0151"/>
<polygon fill="none" stroke="#000000" points="288.1657,-323.6053 277.5868,-324.186 286.2188,-330.3292 288.1657,-323.6053"/>
</g>
<!-- \\GSC\\StringFilters -->
<g id="node5" class="node">
<title>\\GSC\\StringFilters</title>
<polygon fill="none" stroke="#000000" points="474,-600 370,-600 370,-564 474,-564 474,-600"/>
<text text-anchor="middle" x="422" y="-579.2" font-family="Courier,monospace" font-size="11.00" fill="#000000">StringFilters</text>
</g>
<!-- \\GSC\\IStringFilters -->
<g id="node13" class="node">
<title>\\GSC\\IStringFilters</title>
<polygon fill="none" stroke="#000000" points="291,-600 180,-600 180,-564 291,-564 291,-600"/>
<text text-anchor="middle" x="235.5" y="-579.2" font-family="Courier,monospace" font-size="11.00" fill="#000000">IStringFilters</text>
</g>
<!-- \\GSC\\StringFilters&#45;&gt;\\GSC\\IStringFilters -->
<g id="edge5" class="edge">
<title>\\GSC\\StringFilters&#45;&gt;\\GSC\\IStringFilters</title>
<path fill="none" stroke="#000000" stroke-dasharray="1,5" d="M369.553,-582C348.3446,-582 323.6285,-582 301.237,-582"/>
<polygon fill="none" stroke="#000000" points="301.1336,-578.5001 291.1335,-582 301.1335,-585.5001 301.1336,-578.5001"/>
</g>
<!-- \\GSC\\CiTester -->
<g id="node6" class="node">
<title>\\GSC\\CiTester</title>
<polygon fill="none" stroke="#000000" points="457.5,-330 386.5,-330 386.5,-294 457.5,-294 457.5,-330"/>
<text text-anchor="middle" x="422" y="-309.2" font-family="Courier,monospace" font-size="11.00" fill="#000000">CiTester</text>
</g>
<!-- \\GSC\\IPresenter -->
<g id="node14" class="node">
<title>\\GSC\\IPresenter</title>
<polygon fill="none" stroke="#000000" points="108,-330 24,-330 24,-294 108,-294 108,-330"/>
<text text-anchor="middle" x="66" y="-309.2" font-family="Courier,monospace" font-size="11.00" fill="#000000">IPresenter</text>
</g>
<!-- \\GSC\\APresenter&#45;&gt;\\GSC\\IPresenter -->
<g id="edge6" class="edge">
<title>\\GSC\\APresenter&#45;&gt;\\GSC\\IPresenter</title>
<path fill="none" stroke="#000000" stroke-dasharray="1,5" d="M193.1652,-312C170.4285,-312 142.2041,-312 118.1259,-312"/>
<polygon fill="none" stroke="#000000" points="118.0886,-308.5001 108.0886,-312 118.0885,-315.5001 118.0886,-308.5001"/>
</g>
<!-- \\GSC\\CorePresenter -->
<g id="node8" class="node">
<title>\\GSC\\CorePresenter</title>
<polygon fill="none" stroke="#000000" points="474,-276 370,-276 370,-240 474,-240 474,-276"/>
<text text-anchor="middle" x="422" y="-255.2" font-family="Courier,monospace" font-size="11.00" fill="#000000">CorePresenter</text>
</g>
<!-- \\GSC\\CorePresenter&#45;&gt;\\GSC\\APresenter -->
<g id="edge7" class="edge">
<title>\\GSC\\CorePresenter&#45;&gt;\\GSC\\APresenter</title>
<path fill="none" stroke="#000000" d="M369.553,-273.1857C343.8726,-280.6213 313.0493,-289.546 287.4374,-296.9618"/>
<polygon fill="none" stroke="#000000" points="286.1697,-293.685 277.5377,-299.8282 288.1166,-300.4089 286.1697,-293.685"/>
</g>
<!-- \\GSC\\MiniPresenter -->
<g id="node9" class="node">
<title>\\GSC\\MiniPresenter</title>
<polygon fill="none" stroke="#000000" points="474,-222 370,-222 370,-186 474,-186 474,-222"/>
<text text-anchor="middle" x="422" y="-201.2" font-family="Courier,monospace" font-size="11.00" fill="#000000">MiniPresenter</text>
</g>
<!-- \\GSC\\MiniPresenter&#45;&gt;\\GSC\\APresenter -->
<g id="edge8" class="edge">
<title>\\GSC\\MiniPresenter&#45;&gt;\\GSC\\APresenter</title>
<path fill="none" stroke="#000000" d="M380.7007,-222.0249C374.697,-224.8969 368.6423,-227.9354 363,-231 330.6357,-248.5789 295.4089,-271.2481 270.2007,-288.132"/>
<polygon fill="none" stroke="#000000" points="268.06,-285.354 261.7233,-293.8449 271.972,-291.1589 268.06,-285.354"/>
</g>
<!-- \\GSC\\NewzPresenter -->
<g id="node10" class="node">
<title>\\GSC\\NewzPresenter</title>
<polygon fill="none" stroke="#000000" points="474,-168 370,-168 370,-132 474,-132 474,-168"/>
<text text-anchor="middle" x="422" y="-147.2" font-family="Courier,monospace" font-size="11.00" fill="#000000">NewzPresenter</text>
</g>
<!-- \\GSC\\NewzPresenter&#45;&gt;\\GSC\\APresenter -->
<g id="edge9" class="edge">
<title>\\GSC\\NewzPresenter&#45;&gt;\\GSC\\APresenter</title>
<path fill="none" stroke="#000000" d="M377.4589,-168.1066C372.4184,-170.8129 367.4873,-173.7858 363,-177 319.3476,-208.2674 278.5259,-255.9947 255.3298,-285.528"/>
<polygon fill="none" stroke="#000000" points="252.3491,-283.6605 248.9901,-293.7087 257.8822,-287.9484 252.3491,-283.6605"/>
</g>
<!-- \\GSC\\UnitTester -->
<g id="node11" class="node">
<title>\\GSC\\UnitTester</title>
<polygon fill="none" stroke="#000000" points="464,-114 380,-114 380,-78 464,-78 464,-114"/>
<text text-anchor="middle" x="422" y="-93.2" font-family="Courier,monospace" font-size="11.00" fill="#000000">UnitTester</text>
</g>
<!-- \\GSC\\CliPresenter -->
<g id="node12" class="node">
<title>\\GSC\\CliPresenter</title>
<polygon fill="none" stroke="#000000" points="471,-60 373,-60 373,-24 471,-24 471,-60"/>
<text text-anchor="middle" x="422" y="-39.2" font-family="Courier,monospace" font-size="11.00" fill="#000000">CliPresenter</text>
</g>
<!-- \\GSC\\CliPresenter&#45;&gt;\\GSC\\APresenter -->
<g id="edge10" class="edge">
<title>\\GSC\\CliPresenter&#45;&gt;\\GSC\\APresenter</title>
<path fill="none" stroke="#000000" d="M374.7374,-60.052C370.516,-62.6947 366.5164,-65.6687 363,-69 297.2921,-131.2505 258.89,-234.94 243.4541,-284.2766"/>
<polygon fill="none" stroke="#000000" points="240.0749,-283.359 240.5073,-293.945 246.7708,-285.3999 240.0749,-283.359"/>
</g>
</g>
</svg>
