<?xml version="1.0" encoding="UTF-8" standalone="no"?>
<!DOCTYPE svg PUBLIC "-//W3C//DTD SVG 1.1//EN"
 "http://www.w3.org/Graphics/SVG/1.1/DTD/svg11.dtd">
<!-- Generated by graphviz version 2.40.1 (20161225.0304)
 -->
<!-- Title: G Pages: 1 -->
<svg width="513pt" height="618pt"
 viewBox="0.00 0.00 513.00 618.00" xmlns="http://www.w3.org/2000/svg" xmlns:xlink="http://www.w3.org/1999/xlink">
<g id="graph0" class="graph" transform="scale(1 1) rotate(0) translate(4 614)">
<title>G</title>
<polygon fill="#ffffff" stroke="transparent" points="-4,4 -4,-614 509,-614 509,4 -4,4"/>
<g id="clust1" class="cluster">
<title>cluster_Global</title>
<path fill="none" stroke="#c0c0c0" d="M20,-8C20,-8 485,-8 485,-8 491,-8 497,-14 497,-20 497,-20 497,-590 497,-590 497,-596 491,-602 485,-602 485,-602 20,-602 20,-602 14,-602 8,-596 8,-590 8,-590 8,-20 8,-20 8,-14 14,-8 20,-8"/>
<text text-anchor="middle" x="252.5" y="-589.2" font-family="Times,serif" font-size="11.00" fill="#c0c0c0">Global</text>
</g>
<g id="clust2" class="cluster">
<title>cluster_\GSC</title>
<path fill="none" stroke="#c0c0c0" d="M28,-16C28,-16 477,-16 477,-16 483,-16 489,-22 489,-28 489,-28 489,-562 489,-562 489,-568 483,-574 477,-574 477,-574 28,-574 28,-574 22,-574 16,-568 16,-562 16,-562 16,-28 16,-28 16,-22 22,-16 28,-16"/>
<text text-anchor="middle" x="252.5" y="-561.2" font-family="Times,serif" font-size="11.00" fill="#c0c0c0">GSC</text>
</g>
<!-- \\GSC\\APresenter -->
<g id="node1" class="node">
<title>\\GSC\\APresenter</title>
<polygon fill="none" stroke="#000000" points="277.5,-276 193.5,-276 193.5,-240 277.5,-240 277.5,-276"/>
<text text-anchor="start" x="201.5" y="-261.2" font-family="Courier,monospace" font-size="11.00" fill="#000000">«abstract»</text>
<text text-anchor="start" x="201.5" y="-249.2" font-family="Courier,monospace" font-size="11.00" fill="#000000">APresenter</text>
</g>
<!-- \\GSC\\IPresenter -->
<g id="node12" class="node">
<title>\\GSC\\IPresenter</title>
<polygon fill="none" stroke="#000000" points="108,-276 24,-276 24,-240 108,-240 108,-276"/>
<text text-anchor="middle" x="66" y="-255.2" font-family="Courier,monospace" font-size="11.00" fill="#000000">IPresenter</text>
</g>
<!-- \\GSC\\APresenter&#45;&gt;\\GSC\\IPresenter -->
<g id="edge1" class="edge">
<title>\\GSC\\APresenter&#45;&gt;\\GSC\\IPresenter</title>
<path fill="none" stroke="#000000" stroke-dasharray="1,5" d="M193.1652,-258C170.4285,-258 142.2041,-258 118.1259,-258"/>
<polygon fill="none" stroke="#000000" points="118.0886,-254.5001 108.0886,-258 118.0885,-261.5001 118.0886,-254.5001"/>
</g>
<!-- \\GSC\\MiniPresenter -->
<g id="node2" class="node">
<title>\\GSC\\MiniPresenter</title>
<polygon fill="none" stroke="#000000" points="474,-330 370,-330 370,-294 474,-294 474,-330"/>
<text text-anchor="middle" x="422" y="-309.2" font-family="Courier,monospace" font-size="11.00" fill="#000000">MiniPresenter</text>
</g>
<!-- \\GSC\\MiniPresenter&#45;&gt;\\GSC\\APresenter -->
<g id="edge2" class="edge">
<title>\\GSC\\MiniPresenter&#45;&gt;\\GSC\\APresenter</title>
<path fill="none" stroke="#000000" d="M369.553,-296.8143C343.8726,-289.3787 313.0493,-280.454 287.4374,-273.0382"/>
<polygon fill="none" stroke="#000000" points="288.1166,-269.5911 277.5377,-270.1718 286.1697,-276.315 288.1166,-269.5911"/>
</g>
<!-- \\GSC\\ApiPresenter -->
<g id="node3" class="node">
<title>\\GSC\\ApiPresenter</title>
<polygon fill="none" stroke="#000000" points="471,-276 373,-276 373,-240 471,-240 471,-276"/>
<text text-anchor="middle" x="422" y="-255.2" font-family="Courier,monospace" font-size="11.00" fill="#000000">ApiPresenter</text>
</g>
<!-- \\GSC\\ApiPresenter&#45;&gt;\\GSC\\APresenter -->
<g id="edge3" class="edge">
<title>\\GSC\\ApiPresenter&#45;&gt;\\GSC\\APresenter</title>
<path fill="none" stroke="#000000" d="M372.9993,-258C346.7984,-258 314.5302,-258 287.8393,-258"/>
<polygon fill="none" stroke="#000000" points="287.5323,-254.5001 277.5322,-258 287.5322,-261.5001 287.5323,-254.5001"/>
</g>
<!-- \\GSC\\LoginPresenter -->
<g id="node4" class="node">
<title>\\GSC\\LoginPresenter</title>
<polygon fill="none" stroke="#000000" points="477.5,-222 366.5,-222 366.5,-186 477.5,-186 477.5,-222"/>
<text text-anchor="middle" x="422" y="-201.2" font-family="Courier,monospace" font-size="11.00" fill="#000000">LoginPresenter</text>
</g>
<!-- \\GSC\\LoginPresenter&#45;&gt;\\GSC\\APresenter -->
<g id="edge4" class="edge">
<title>\\GSC\\LoginPresenter&#45;&gt;\\GSC\\APresenter</title>
<path fill="none" stroke="#000000" d="M366.2965,-220.1286C341.2972,-227.367 311.9758,-235.8569 287.4379,-242.9617"/>
<polygon fill="none" stroke="#000000" points="286.2238,-239.6694 277.5918,-245.8126 288.1707,-246.3932 286.2238,-239.6694"/>
</g>
<!-- \\GSC\\UnitTester -->
<g id="node5" class="node">
<title>\\GSC\\UnitTester</title>
<polygon fill="none" stroke="#000000" points="464,-384 380,-384 380,-348 464,-348 464,-384"/>
<text text-anchor="middle" x="422" y="-363.2" font-family="Courier,monospace" font-size="11.00" fill="#000000">UnitTester</text>
</g>
<!-- \\GSC\\StringFilters -->
<g id="node6" class="node">
<title>\\GSC\\StringFilters</title>
<polygon fill="none" stroke="#000000" points="474,-546 370,-546 370,-510 474,-510 474,-546"/>
<text text-anchor="middle" x="422" y="-525.2" font-family="Courier,monospace" font-size="11.00" fill="#000000">StringFilters</text>
</g>
<!-- \\GSC\\IStringFilters -->
<g id="node13" class="node">
<title>\\GSC\\IStringFilters</title>
<polygon fill="none" stroke="#000000" points="291,-546 180,-546 180,-510 291,-510 291,-546"/>
<text text-anchor="middle" x="235.5" y="-525.2" font-family="Courier,monospace" font-size="11.00" fill="#000000">IStringFilters</text>
</g>
<!-- \\GSC\\StringFilters&#45;&gt;\\GSC\\IStringFilters -->
<g id="edge5" class="edge">
<title>\\GSC\\StringFilters&#45;&gt;\\GSC\\IStringFilters</title>
<path fill="none" stroke="#000000" stroke-dasharray="1,5" d="M369.553,-528C348.3446,-528 323.6285,-528 301.237,-528"/>
<polygon fill="none" stroke="#000000" points="301.1336,-524.5001 291.1335,-528 301.1335,-531.5001 301.1336,-524.5001"/>
</g>
<!-- \\GSC\\RSSPresenter -->
<g id="node7" class="node">
<title>\\GSC\\RSSPresenter</title>
<polygon fill="none" stroke="#000000" points="471,-114 373,-114 373,-78 471,-78 471,-114"/>
<text text-anchor="middle" x="422" y="-93.2" font-family="Courier,monospace" font-size="11.00" fill="#000000">RSSPresenter</text>
</g>
<!-- \\GSC\\RSSPresenter&#45;&gt;\\GSC\\APresenter -->
<g id="edge6" class="edge">
<title>\\GSC\\RSSPresenter&#45;&gt;\\GSC\\APresenter</title>
<path fill="none" stroke="#000000" d="M377.4589,-114.1066C372.4184,-116.8129 367.4873,-119.7858 363,-123 319.3476,-154.2674 278.5259,-201.9947 255.3298,-231.528"/>
<polygon fill="none" stroke="#000000" points="252.3491,-229.6605 248.9901,-239.7087 257.8822,-233.9484 252.3491,-229.6605"/>
</g>
<!-- \\GSC\\LogoutPresenter -->
<g id="node8" class="node">
<title>\\GSC\\LogoutPresenter</title>
<polygon fill="none" stroke="#000000" points="481,-492 363,-492 363,-456 481,-456 481,-492"/>
<text text-anchor="middle" x="422" y="-471.2" font-family="Courier,monospace" font-size="11.00" fill="#000000">LogoutPresenter</text>
</g>
<!-- \\GSC\\LogoutPresenter&#45;&gt;\\GSC\\APresenter -->
<g id="edge7" class="edge">
<title>\\GSC\\LogoutPresenter&#45;&gt;\\GSC\\APresenter</title>
<path fill="none" stroke="#000000" d="M375.708,-455.8905C371.1966,-453.2382 366.8664,-450.2782 363,-447 308.3348,-400.6517 267.2137,-325.315 247.8251,-285.1845"/>
<polygon fill="none" stroke="#000000" points="250.9232,-283.5489 243.477,-276.0119 244.5978,-286.5473 250.9232,-283.5489"/>
</g>
<!-- \\GSC\\CliPresenter -->
<g id="node9" class="node">
<title>\\GSC\\CliPresenter</title>
<polygon fill="none" stroke="#000000" points="471,-438 373,-438 373,-402 471,-402 471,-438"/>
<text text-anchor="middle" x="422" y="-417.2" font-family="Courier,monospace" font-size="11.00" fill="#000000">CliPresenter</text>
</g>
<!-- \\GSC\\CliPresenter&#45;&gt;\\GSC\\APresenter -->
<g id="edge8" class="edge">
<title>\\GSC\\CliPresenter&#45;&gt;\\GSC\\APresenter</title>
<path fill="none" stroke="#000000" d="M377.4589,-401.8934C372.4184,-399.1871 367.4873,-396.2142 363,-393 319.3476,-361.7326 278.5259,-314.0053 255.3298,-284.472"/>
<polygon fill="none" stroke="#000000" points="257.8822,-282.0516 248.9901,-276.2913 252.3491,-286.3395 257.8822,-282.0516"/>
</g>
<!-- \\GSC\\CorePresenter -->
<g id="node10" class="node">
<title>\\GSC\\CorePresenter</title>
<polygon fill="none" stroke="#000000" points="474,-168 370,-168 370,-132 474,-132 474,-168"/>
<text text-anchor="middle" x="422" y="-147.2" font-family="Courier,monospace" font-size="11.00" fill="#000000">CorePresenter</text>
</g>
<!-- \\GSC\\CorePresenter&#45;&gt;\\GSC\\APresenter -->
<g id="edge9" class="edge">
<title>\\GSC\\CorePresenter&#45;&gt;\\GSC\\APresenter</title>
<path fill="none" stroke="#000000" d="M380.7007,-168.0249C374.697,-170.8969 368.6423,-173.9354 363,-177 330.6357,-194.5789 295.4089,-217.2481 270.2007,-234.132"/>
<polygon fill="none" stroke="#000000" points="268.06,-231.354 261.7233,-239.8449 271.972,-237.1589 268.06,-231.354"/>
</g>
<!-- \\GSC\\CiTester -->
<g id="node11" class="node">
<title>\\GSC\\CiTester</title>
<polygon fill="none" stroke="#000000" points="457.5,-60 386.5,-60 386.5,-24 457.5,-24 457.5,-60"/>
<text text-anchor="middle" x="422" y="-39.2" font-family="Courier,monospace" font-size="11.00" fill="#000000">CiTester</text>
</g>
</g>
</svg>
